<svg enable-background="new 0 0 497 497" width="497" height="497" viewBox="0 0 497 497" xmlns="http://www.w3.org/2000/svg">
  <g>
    <path d="m112.5 489.5v-482c0-4.142-3.358-7.5-7.5-7.5h-15c-4.142 0-7.5 3.358-7.5 7.5v37.5l15 22.5-15 22.5v75.667l15 22.5-15 22.5v75.667l15 22.5-15 22.5v75.666l15 22.5-15 22.5v37.5c0 4.142 3.358 7.5 7.5 7.5h15c4.142 0 7.5-3.358 7.5-7.5z" fill="#373e42"/>
    <path d="m384.5 7.5v482c0 4.142 3.358 7.5 7.5 7.5h15c4.142 0 7.5-3.358 7.5-7.5v-37.5l-15-22.5 15-22.5v-75.667l-15-22.5 15-22.5v-75.667l-15-22.5 15-22.5v-75.666l-15-22.5 15-22.5v-37.5c0-4.142-3.358-7.5-7.5-7.5h-15c-4.142 0-7.5 3.358-7.5 7.5z" fill="#373e42"/>
    <path d="m384.5 407-30 22.5 30 22.5h30v-45z" fill="#f9d103"/>
    <path d="m82.5 407h302v45h-302z" fill="#f9e167"/>
    <path d="m384.5 286.333-30 22.5 30 22.5h30v-45z" fill="#f9d103"/>
    <path d="m82.5 286.333h302v45h-302z" fill="#f9e167"/>
    <path d="m384.5 165.667-30 22.5 30 22.5h30v-45z" fill="#f9d103"/>
    <path d="m82.5 165.667h302v45h-302z" fill="#f9e167"/>
    <path d="m384.5 45-30 22.5 30 22.5h30v-45z" fill="#f9d103"/>
    <path d="m82.5 45h302v45h-302z" fill="#f9e167"/>
  </g>
</svg>