<?xml version="1.0" encoding="UTF-8" standalone="no"?>
<svg viewBox="0 0 574.06097 556.89099" version="1.1" id="svg18141" sodipodi:docname="ho6a13xy41bla2mxszu.svg"
  width="574.06097" height="556.89099" inkscape:version="1.2.1 (9c6d41e410, 2022-07-14)"
  inkscape:export-filename="ho6a13xy41bla2mxszu.png" inkscape:export-xdpi="95.989807" inkscape:export-ydpi="95.989807"
  xmlns:inkscape="http://www.inkscape.org/namespaces/inkscape"
  xmlns:sodipodi="http://sodipodi.sourceforge.net/DTD/sodipodi-0.dtd" xmlns="http://www.w3.org/2000/svg"
  xmlns:svg="http://www.w3.org/2000/svg">
  <g fill="none" class="jvs-layer selected" id="g18139"
    transform="matrix(-6.4060644e-5,-0.872996,0.79551494,-1.5446248e-4,104.55541,605.04672)"
    style="stroke-width:1.19996" inkscape:path-effect="#path-effect20805">
    <g transform="translate(3.57976,4)" id="g18137" style="stroke-width:1.19996">
      <polygon stroke="#dddddd" stroke-width="2.2" fill-opacity="0" fill="#ffffff" fill-rule="nonzero"
        stroke-linecap="round" stroke-linejoin="round"
        points="52.110755,-133.65354 688.90928,-28.025355 688.90928,477.48771 52.110755,585.29926" id="polygon18127"
        d="m 56.110755,581.29926 0,-711.9528 629.798525,103.628185 0,504.513065 z"
        inkscape:export-filename=".\polygon18127.svg" inkscape:export-xdpi="95.989807"
        inkscape:export-ydpi="95.989807" />
      <path d="m 424.96001,-70.484338 0,590.963538 z" stroke="#dddddd" stroke-width="2.2" fill-opacity="0"
        fill="#ffffff" fill-rule="nonzero" stroke-linecap="round" stroke-linejoin="round" id="path18129"
        inkscape:original-d="M 311.92024,0 V 450 Z" />
      <circle cx="5" cy="229" r="30%" stroke="#dddddd" stroke-width="2.2" id="circle18131"
        d="m 240.50336,230.78984 c 0,113.09655 -78.51146,213.14074 -184.392605,224.41687 C -61.27005,467.70754 -166.21326,368.34082 -166.21326,231.97918 -166.21326,95.617526 -61.27005,-4.3629459 56.110755,7.4513789 161.9919,18.108269 240.50336,117.69328 240.50336,230.78984 Z" />
      <circle cx="720" cy="229" r="20%" stroke="#dddddd" stroke-width="2.2" id="circle18133"
        d="m 785.68097,229.1956 c 0,81.91118 -40.7372,152.65175 -94.2983,158.3559 -57.60412,6.13472 -107.59342,-64.30568 -107.59342,-157.76552 0,-93.45983 49.9893,-164.192599 107.59342,-158.394771 53.5611,5.390901 94.2983,75.893211 94.2983,157.804391 z" />
      <path
        d="m 500.12816,224.99788 c 0,55.59019 -32.85967,102.58049 -75.16815,105.05973 -44.40444,2.60206 -82.04888,-44.38188 -82.04888,-105.06067 0,-60.67879 37.64444,-107.66229 82.04888,-105.05969 42.30848,2.47974 75.16815,49.47044 75.16815,105.06063 z"
        stroke="#dddddd" stroke-width="2.2" fill-opacity="0" fill="#ffffff" fill-rule="nonzero" stroke-linecap="round"
        stroke-linejoin="round" id="path18135"
        inkscape:original-d="m 391.92024,225 c 0,44.18278 -35.81722,80 -80,80 -44.18278,0 -80,-35.81722 -80,-80 0,-44.18278 35.81722,-80 80,-80 44.18278,0 80,35.81722 80,80 z" />
    </g>
  </g>
</svg>
