<?xml version="1.0" encoding="UTF-8" standalone="no"?>
<svg
   xmlns:dc="http://purl.org/dc/elements/1.1/"
   xmlns:cc="http://creativecommons.org/ns#"
   xmlns:rdf="http://www.w3.org/1999/02/22-rdf-syntax-ns#"
   xmlns:svg="http://www.w3.org/2000/svg"
   xmlns="http://www.w3.org/2000/svg"
   xmlns:sodipodi="http://sodipodi.sourceforge.net/DTD/sodipodi-0.dtd"
   xmlns:inkscape="http://www.inkscape.org/namespaces/inkscape"
   inkscape:version="1.0 (1.0+r73+1)"
   inkscape:export-ydpi="96"
   inkscape:export-xdpi="96"
   inkscape:export-filename="/home/piercarlo/workspace/iterpro-client/src/assets/img/logo/logo-white.png"
   sodipodi:docname="logo-white-rotated.svg"
   version="1.1"
   viewBox="0 0 153.65 176.74"
   data-name="Calque 1"
   id="Calque_1">
  <metadata
     id="metadata101">
    <rdf:RDF>
      <cc:Work
         rdf:about="">
        <dc:format>image/svg+xml</dc:format>
        <dc:type
           rdf:resource="http://purl.org/dc/dcmitype/StillImage" />
        <dc:title>Iterpro circle white-orange</dc:title>
      </cc:Work>
    </rdf:RDF>
  </metadata>
  <sodipodi:namedview
     inkscape:current-layer="Calque_1"
     inkscape:window-maximized="1"
     inkscape:window-y="27"
     inkscape:window-x="59"
     inkscape:cy="63.658266"
     inkscape:cx="-115.57008"
     inkscape:zoom="2.3990042"
     showgrid="false"
     id="namedview99"
     inkscape:window-height="1025"
     inkscape:window-width="1861"
     inkscape:pageshadow="2"
     inkscape:pageopacity="0"
     guidetolerance="10"
     gridtolerance="10"
     objecttolerance="10"
     borderopacity="1"
     bordercolor="#666666"
     pagecolor="#ffffff" />
  <defs
     id="defs86">
    <style
       id="style84">
			.cls-1 {
				fill: #ff6900;
			}

			.cls-2 {
				fill: #fff;
			}
		</style>
  </defs>
  <title
     id="title88">Iterpro circle white-orange</title>
  <path
     id="path90"
     d="m 46.314651,93.140673 c 2.135607,7.472867 4.207737,14.519967 6.127141,21.601347 a 5.35,5.35 0 0 1 -0.440033,2.94047 60.28,60.28 0 0 0 -2.474587,33.75755 56.48,56.48 0 0 0 10.558195,23.39352 c 15.668382,20.16568 36.165906,28.09148 61.304143,23.67303 a 50.81,50.81 0 0 0 21.78582,-9.49151 c 20.68344,-15.5875 28.58494,-36.33624 23.71419,-61.57004 -4.72569,-24.77137 -26.11533,-44.166269 -51.07257,-47.497716 A 63.66,63.66 0 0 0 99.763776,79.856204 5.22,5.22 0 0 1 96.949753,79.571125 C 90.189794,76.142896 83.506691,72.587415 76.49508,68.977333 c 0.773786,-0.412011 1.290656,-0.743442 1.81509,-0.939067 a 76.79,76.79 0 0 1 78.81573,12.454999 c 19.72188,16.845017 29.25027,38.407135 27.99947,64.364075 a 72.63,72.63 0 0 1 -19.46654,46.8619 c -16.7763,18.27186 -37.71359,26.68373 -62.45976,24.98702 -19.445014,-1.33735 -35.974216,-9.28758 -49.719422,-23.11065 a 77.69,77.69 0 0 1 -16.83251,-83.53113 75.51,75.51 0 0 1 8.462589,-15.553349 c 0.265032,-0.371157 0.589817,-0.700725 1.185957,-1.393701"
     class="cls-1" />
  <path
     id="path92"
     d="m 68.81203,140.60776 a 9.61,9.61 0 0 1 -0.816897,-1.61793 Q 58.308196,105.10187 48.61351,71.220231 c -0.806869,-2.839359 -1.615171,-5.664646 -2.534859,-8.863689 4.227199,2.190843 8.118324,4.191279 11.992528,6.218431 q 29.146654,15.155905 58.229891,30.376461 a 20.84,20.84 0 0 1 1.93389,1.325966 v 0 a 8.87,8.87 0 0 1 -1.47276,0.64682 c -10.15324,2.42554 -20.271405,4.9257 -30.479319,7.18935 a 4.43,4.43 0 0 0 -3.440003,2.80712 c -4.081247,8.99656 -8.258133,17.955 -12.428697,26.92119 -0.477624,0.99638 -1.050084,1.87654 -1.632522,2.8552 z"
     class="cls-2" />
  <path
     id="path94"
     d="M45.57,75a.54.54,0,0,1-.08.19s-.09,0-.14,0l.26-.13Z"
     class="cls-2" />
  <path
     id="path96"
     d="M109.4,75a.37.37,0,0,1,.18,0s0,.08,0,.13a1.77,1.77,0,0,0-.16-.22Z"
     class="cls-2" />
</svg>
