<?xml version="1.0" encoding="UTF-8" standalone="no"?>
<svg xmlns:dc="http://purl.org/dc/elements/1.1/" xmlns:cc="http://creativecommons.org/ns#"
	xmlns:rdf="http://www.w3.org/1999/02/22-rdf-syntax-ns#" xmlns:svg="http://www.w3.org/2000/svg"
	xmlns="http://www.w3.org/2000/svg" xmlns:sodipodi="http://sodipodi.sourceforge.net/DTD/sodipodi-0.dtd"
	xmlns:inkscape="http://www.inkscape.org/namespaces/inkscape" inkscape:version="1.0 (1.0+r73+1)"
	sodipodi:docname="logo-all-black-cropped.svg" version="1.1" viewBox="0 0 153.65 176.74" data-name="Calque 1"
	id="Calque_1">
	<metadata id="metadata225">
		<rdf:RDF>
			<cc:Work rdf:about="">
				<dc:format>image/svg+xml</dc:format>
				<dc:type rdf:resource="http://purl.org/dc/dcmitype/StillImage" />
				<dc:title>Iterpro circle orange-grey</dc:title>
			</cc:Work>
		</rdf:RDF>
	</metadata>
	<sodipodi:namedview inkscape:current-layer="Calque_1" inkscape:window-maximized="1" inkscape:window-y="27"
		inkscape:window-x="59" inkscape:cy="115.30479" inkscape:cx="50.236014" inkscape:zoom="2.4838745" showgrid="false"
		id="namedview223" inkscape:window-height="1025" inkscape:window-width="1861" inkscape:pageshadow="2"
		inkscape:pageopacity="0" guidetolerance="10" gridtolerance="10" objecttolerance="10" borderopacity="1"
		bordercolor="#666666" pagecolor="#ffffff" />
	<defs id="defs210">
		<style id="style208">
			.cls-1 {
				fill: black;
			}

			.cls-2 {
				fill: #ff6900;
			}

			.cls-3 {
				fill: #fff;
			}
		</style>
	</defs>
	<title id="title212">Iterpro circle orange-grey</title>
	<path id="path214"
		d="m 58.309288,74 c -3.07,7.14 -5.92,13.91 -8.91,20.61 a 5.35,5.35 0 0 1 -2.2,2 60.28,60.28 0 0 0 -23.26,24.59 56.48,56.48 0 0 0 -6.61,24.8 c -0.61,25.53 10.26,44.63 32.53,57.1 a 50.81,50.81 0 0 0 22.88,6.42 c 25.88,1 45.120002,-10.08 57.300002,-32.71 12,-22.18 7.69,-50.73 -9.54,-69.09 a 63.66,63.66 0 0 0 -12.38,-10.22 5.22,5.22 0 0 1 -2,-2 c -3.07,-6.93 -6,-13.91 -9.150002,-21.14 0.86,0.17 1.47,0.24 2,0.42 a 76.79,76.79 0 0 1 53.190002,59.48 c 4.63,25.52 -1.62,48.25 -19,67.57 a 72.63,72.63 0 0 1 -44.710002,24 c -24.55,3.55 -46.09,-3.17 -64.19,-20.13 -14.22,-13.33 -22,-29.94 -23.90999999,-49.34 A 77.69,77.69 0 0 1 40.119288,81 a 75.51,75.51 0 0 1 16.39,-6.7 c 0.44,-0.12 0.9,-0.17 1.8,-0.33"
		class="cls-1" />
	<path id="path216"
		d="m 45.729288,125 a 9.61,9.61 0 0 1 0.39,-1.77 q 13.92,-32.38 27.83,-64.76 c 1.17,-2.71 2.33,-5.41 3.64,-8.47 1.89,4.37 3.64,8.38 5.36,12.4 q 13,30.17 25.910002,60.35 a 20.84,20.84 0 0 1 0.66,2.25 v 0 a 8.87,8.87 0 0 1 -1.55,-0.43 c -9.400002,-4.54 -18.820002,-9 -28.160002,-13.7 a 4.43,4.43 0 0 0 -4.44,0 c -8.85,4.39 -17.75,8.69 -26.65,13 -1,0.47 -2,0.79 -3.07,1.18 z"
		class="cls-1" />
	<path id="path218" d="m 45.689288,125 a 0.54,0.54 0 0 1 -0.08,0.19 c 0,0 -0.09,0 -0.14,0 l 0.26,-0.13 z"
		class="cls-1" />
	<path id="path220" d="m 109.51929,125 a 0.37,0.37 0 0 1 0.18,0 c 0,0 0,0.08 0,0.13 a 1.77,1.77 0 0 0 -0.16,-0.22 z"
		class="cls-1" />
</svg>