<svg id="Calque_1" data-name="Calque 1" xmlns="http://www.w3.org/2000/svg" viewBox="0 0 153.65 176.74">
	<defs>
		<style>
			.cls-1 {
				fill: #2f2b2b;
			}

			.cls-2 {
				fill: #ff6900;
			}

			.cls-3 {
				fill: #fff;
			}
		</style>
	</defs>
	<title>Iterpro circle orange-grey</title>
	<path class="cls-1"
		d="M58.19,24c-3.07,7.14-5.92,13.91-8.91,20.61a5.35,5.35,0,0,1-2.2,2A60.28,60.28,0,0,0,23.82,71.2,56.48,56.48,0,0,0,17.21,96c-.61,25.53,10.26,44.63,32.53,57.1a50.81,50.81,0,0,0,22.88,6.42c25.88,1,45.12-10.08,57.3-32.71,12-22.18,7.69-50.73-9.54-69.09A63.66,63.66,0,0,0,108,47.5a5.22,5.22,0,0,1-2-2c-3.07-6.93-6-13.91-9.15-21.14.86.17,1.47.24,2,.42a76.79,76.79,0,0,1,53.19,59.48c4.63,25.52-1.62,48.25-19,67.57a72.63,72.63,0,0,1-44.71,24c-24.55,3.55-46.09-3.17-64.19-20.13-14.22-13.33-22-29.94-23.91-49.34A77.69,77.69,0,0,1,40,31,75.51,75.51,0,0,1,56.39,24.3c.44-.12.9-.17,1.8-.33" />
	<path class="cls-1"
		d="M45.61,75A9.61,9.61,0,0,1,46,73.23Q59.92,40.85,73.83,8.47C75,5.76,76.16,3.06,77.47,0c1.89,4.37,3.64,8.38,5.36,12.4q13,30.17,25.91,60.35A20.84,20.84,0,0,1,109.4,75l0,0a8.87,8.87,0,0,1-1.55-.43c-9.4-4.54-18.82-9-28.16-13.7a4.43,4.43,0,0,0-4.44,0c-8.85,4.39-17.75,8.69-26.65,13-1,.47-2,.79-3.07,1.18Z" />
	<path class="cls-1" d="M45.57,75a.54.54,0,0,1-.08.19s-.09,0-.14,0l.26-.13Z" />
	<path class="cls-1" d="M109.4,75a.37.37,0,0,1,.18,0s0,.08,0,.13a1.77,1.77,0,0,0-.16-.22Z" />
</svg>