<svg id="Calque_1" data-name="Calque 1" xmlns="http://www.w3.org/2000/svg" viewBox="0 0 778.97 262.65">
	<defs>
		<style>
			.cls-1 {
				fill: #fff;
			}

			.cls-2 {
				fill: #ff6900;
			}
		</style>
	</defs>
	<title>Iterpro full logo orange blanc</title>
	<path class="cls-1"
		d="M378.94,73.14H397.1V86.21C416,66.35,438.63,58.62,465,61.77c20.54,2.46,36.87,12.64,50,28.4,23.27,28,23.71,75.56-7.29,104.46-15.79,14.74-34.28,21.73-55.79,21.17s-39.53-9.09-54.22-24.6a2.19,2.19,0,0,0-.37.12.36.36,0,0,0-.12.18,5.51,5.51,0,0,0-.09.71c0,.4,0,.8,0,1.2V261.8a2.42,2.42,0,0,1-.06.47,2,2,0,0,1-.19.38H378.94Zm134,65.45a64.06,64.06,0,0,0-3.18-19.39c-8-22.81-32.67-44.41-66.83-38.21-21.57,3.91-39.69,22-44.85,41.16a27.73,27.73,0,0,0-.93,6.6c-.12,6.79-.07,13.59,0,20.39a18.13,18.13,0,0,0,.5,4c5.83,24.55,32.82,51.18,71.43,42.1,19.74-4.65,43.82-24.82,43.88-56.67" />
	<path class="cls-2"
		d="M256.49,173.54l18.36,6.59c-18.26,27.71-49.08,41.43-84.18,33.52-28.1-6.34-55.37-33-58.29-67.89-3.6-42.83,24.25-70.43,49.24-79.82,28.69-10.77,64.51-5,87,22.42L173.2,183.75c17.39,16.47,58.57,21.62,83.29-10.21m-95.82-3.44,80.62-80.61c-16-12.21-49.17-15.18-71.82,6.27-24.65,23.35-21.08,58-8.8,74.34" />
	<path class="cls-1"
		d="M683.51,62.42c-3.06,7.13-5.92,13.9-8.91,20.6a5.38,5.38,0,0,1-2.2,2,60.25,60.25,0,0,0-23.26,24.58,56.48,56.48,0,0,0-6.61,24.8c-.61,25.53,10.26,44.63,32.53,57.1A50.72,50.72,0,0,0,697.94,198c25.89,1,45.12-10.08,57.31-32.71,12-22.18,7.68-50.73-9.55-69.09a64.64,64.64,0,0,0-12.33-10.22,5.22,5.22,0,0,1-2-2c-3.07-6.94-6-13.92-9.14-21.15.85.17,1.46.24,2,.42a76.85,76.85,0,0,1,53.2,59.48c4.63,25.52-1.63,48.25-19,67.57a72.63,72.63,0,0,1-44.71,24c-24.55,3.55-46.09-3.17-64.18-20.13-14.22-13.32-22-29.93-23.92-49.34a77.7,77.7,0,0,1,39.67-75.36,75.22,75.22,0,0,1,16.36-6.69c.44-.12.91-.16,1.8-.32" />
	<path class="cls-2"
		d="M119.18,81.27H80.1v2.9q0,30.72,0,61.44c0,3.91.07,7.83.4,11.73a49.77,49.77,0,0,0,5.09,18.12C91.1,186.4,100.15,192.59,112,195c2.81.56,5.7.73,8.55,1.08l2.77.32c-.17,6-.34,11.75-.51,17.65-2.64.45-5.08,0-7.51-.31a62,62,0,0,1-23.91-7.21C78.84,199.59,70.8,189,66.18,175.65a71,71,0,0,1-4-21.84c-.06-2.79,0-5.58,0-8.37V81.34H43.88V63.51c2-.57,4-.2,5.93-.27s4,0,6,0h6.31c.15-7.16.05-14.15.07-21.15s0-13.92,0-20.88V0H80.06V63.2c3.39.06,6.55,0,9.71,0h29.36c.11,6,0,11.9.05,18" />
	<path class="cls-2"
		d="M357.91,69.77V89c-4.21.16-8.29.65-11.87,2.76a64.85,64.85,0,0,0-9.07,6.2c-9.42,8-16.14,17.86-19.07,30.05a62,62,0,0,0-1.71,14.48q0,33.36,0,66.71v2.77h-18V73.19h17.89V91.5c1-.93,1.5-1.45,2-2,6.34-6.65,13.35-12.38,21.86-16.08a44.44,44.44,0,0,1,17.93-3.66" />
	<path class="cls-1"
		d="M574.68,212H557c-.48-1.72-.68-134.5-.19-138.84h17.89V91.33c.84-.78,1.3-1.15,1.7-1.58,6.79-7.12,14.3-13.23,23.56-16.9a41.36,41.36,0,0,1,16.51-2.94v19c-.73.1-1.49.27-2.26.3a25,25,0,0,0-13.78,4.94c-13.18,9.36-22,21.64-24.83,37.81a65.25,65.25,0,0,0-.86,10.73c-.07,22.15,0,44.3,0,66.44,0,.94,0,1.88,0,2.92" />
	<path class="cls-2" d="M17.72,213.88H0V72.52c1.6-.48,12.58-.66,17.72-.24Z" />
	<path class="cls-2"
		d="M670.93,113.45a10.49,10.49,0,0,1,.42-1.78q13.89-32.39,27.81-64.76l3.63-8.47c1.89,4.37,3.64,8.38,5.36,12.4q13,30.16,25.91,60.35a17.11,17.11,0,0,1,.66,2.25l0,0a9,9,0,0,1-1.56-.43c-9.4-4.54-18.81-9-28.16-13.7a4.41,4.41,0,0,0-4.43,0c-8.86,4.39-17.76,8.69-26.65,13-1,.47-2.05.79-3.08,1.18Z" />
	<path class="cls-1" d="M670.89,113.4a.54.54,0,0,1-.08.19s-.09,0-.13,0l.25-.13Z" />
	<path class="cls-1" d="M734.72,113.44a.53.53,0,0,1,.18,0s0,.08,0,.13l-.15-.22Z" />
</svg>