<?xml version="1.0" encoding="UTF-8" standalone="no"?>
<!-- Created with Inkscape (http://www.inkscape.org/) -->

<svg
   xmlns:dc="http://purl.org/dc/elements/1.1/"
   xmlns:cc="http://creativecommons.org/ns#"
   xmlns:rdf="http://www.w3.org/1999/02/22-rdf-syntax-ns#"
   xmlns:svg="http://www.w3.org/2000/svg"
   xmlns="http://www.w3.org/2000/svg"
   xmlns:sodipodi="http://sodipodi.sourceforge.net/DTD/sodipodi-0.dtd"
   xmlns:inkscape="http://www.inkscape.org/namespaces/inkscape"
   width="393.07413"
   height="131.02299"
   viewbox="0 0 393.07413 131.02299"
   id="svg2"
   version="1.1"
   inkscape:version="0.48.4 r9939"
   sodipodi:docname="New document 1">
  <defs
     id="defs4">
    <clipPath
       clipPathUnits="userSpaceOnUse"
       id="clipPath84">
      <path
         inkscape:connector-curvature="0"
         d="m 0,1536 2048,0 L 2048,0 0,0 0,1536 z"
         id="path86" />
    </clipPath>
  </defs>
  <sodipodi:namedview
     id="base"
     pagecolor="#ffffff"
     bordercolor="#666666"
     borderopacity="1.0"
     inkscape:pageopacity="0.0"
     inkscape:pageshadow="2"
     inkscape:zoom="0.35"
     inkscape:cx="375"
     inkscape:cy="519.99567"
     inkscape:document-units="px"
     inkscape:current-layer="layer1"
     showgrid="false"
     fit-margin-top="0"
     fit-margin-left="0"
     fit-margin-right="0"
     fit-margin-bottom="0"
     inkscape:window-width="1301"
     inkscape:window-height="744"
     inkscape:window-x="65"
     inkscape:window-y="336"
     inkscape:window-maximized="1" />
  <metadata
     id="metadata7">
    <rdf:RDF>
      <cc:Work
         rdf:about="">
        <dc:format>image/svg+xml</dc:format>
        <dc:type
           rdf:resource="http://purl.org/dc/dcmitype/StillImage" />
        <dc:title></dc:title>
      </cc:Work>
    </rdf:RDF>
  </metadata>
  <g
     inkscape:label="Layer 1"
     inkscape:groupmode="layer"
     id="layer1"
     transform="translate(0,-921.33485)">
    <g
       transform="matrix(1.25,0,0,-1.25,-1083.4625,2351.9196)"
       id="g80">
      <g
         id="g82"
         clip-path="url(#clipPath84)">
        <g
           id="g88"
           transform="translate(967.2568,1108.5811)">
          <path
             inkscape:connector-curvature="0"
             d="m 0,0 c -4.151,3.193 -8.978,4.791 -14.477,4.791 -6.635,0 -12.312,-2.352 -17.031,-7.053 -4.72,-4.701 -7.079,-10.386 -7.079,-17.057 0,-5.5 1.598,-10.326 4.791,-14.477 L 0,0 z m -30.55,-37.309 c 4.506,-4.116 9.863,-6.173 16.073,-6.173 6.671,0 12.366,2.359 17.084,7.078 0.604,0.603 1.172,1.224 1.704,1.863 l 5.056,-1.81 c -0.923,-1.277 -1.969,-2.501 -3.14,-3.672 -5.712,-5.713 -12.614,-8.569 -20.704,-8.569 -8.054,0 -14.938,2.856 -20.65,8.569 -5.713,5.712 -8.569,12.614 -8.569,20.704 0,8.053 2.856,14.937 8.569,20.65 5.712,5.712 12.596,8.569 20.65,8.569 C -7.558,9.9 -1.509,7.824 3.672,3.673 4.523,2.963 5.375,2.183 6.227,1.331 6.547,1.012 6.848,0.692 7.132,0.373 L 3.513,-3.246 -30.55,-37.309 z"
             style="fill:#ffffff;fill-opacity:1;fill-rule:nonzero;stroke:none"
             id="path90" />
        </g>
        <g
           id="g92"
           transform="translate(967.2568,1108.5811)">
          <path
             inkscape:connector-curvature="0"
             d="m 0,0 c -4.151,3.193 -8.978,4.791 -14.477,4.791 -6.635,0 -12.312,-2.352 -17.031,-7.053 -4.72,-4.701 -7.079,-10.386 -7.079,-17.057 0,-5.5 1.598,-10.326 4.791,-14.477 L 0,0 z m -30.55,-37.309 c 4.506,-4.116 9.863,-6.173 16.073,-6.173 6.671,0 12.366,2.359 17.084,7.078 0.604,0.603 1.172,1.224 1.704,1.863 l 5.056,-1.81 c -0.923,-1.277 -1.969,-2.501 -3.14,-3.672 -5.712,-5.713 -12.614,-8.569 -20.704,-8.569 -8.054,0 -14.938,2.856 -20.65,8.569 -5.713,5.712 -8.569,12.614 -8.569,20.704 0,8.053 2.856,14.937 8.569,20.65 5.712,5.712 12.596,8.569 20.65,8.569 C -7.558,9.9 -1.509,7.824 3.672,3.673 4.523,2.963 5.375,2.183 6.227,1.331 6.547,1.012 6.848,0.692 7.132,0.373 L 3.513,-3.246 -30.55,-37.309 z"
             style="fill:none;stroke:#ffffff;stroke-width:3.75;stroke-linecap:butt;stroke-linejoin:miter;stroke-miterlimit:4;stroke-opacity:1;stroke-dasharray:none"
             id="path94" />
        </g>
        <g
           id="g96"
           transform="translate(989.3975,1113.7441)">
          <path
             inkscape:connector-curvature="0"
             d="m 0,0 4.79,0 0,-9.526 c 0.993,1.418 2.147,2.785 3.46,4.097 4.222,4.223 8.551,6.44 12.986,6.653 l 0,-5.215 C 18.22,-4.134 15.098,-5.819 11.869,-9.048 7.326,-13.554 4.967,-18.966 4.79,-25.28 l 0,-26.985 -4.79,0 L 0,0 z"
             style="fill:#ffffff;fill-opacity:1;fill-rule:nonzero;stroke:none"
             id="path98" />
        </g>
        <g
           id="g100"
           transform="translate(989.3975,1113.7441)">
          <path
             inkscape:connector-curvature="0"
             d="m 0,0 4.79,0 0,-9.526 c 0.993,1.418 2.147,2.785 3.46,4.097 4.222,4.223 8.551,6.44 12.986,6.653 l 0,-5.215 C 18.22,-4.134 15.098,-5.819 11.869,-9.048 7.326,-13.554 4.967,-18.966 4.79,-25.28 l 0,-26.985 -4.79,0 L 0,0 z"
             style="fill:none;stroke:#ffffff;stroke-width:3.75;stroke-linecap:butt;stroke-linejoin:miter;stroke-miterlimit:4;stroke-opacity:1;stroke-dasharray:none"
             id="path102" />
        </g>
        <g
           id="g104"
           transform="translate(1027.1318,1094.2119)">
          <path
             inkscape:connector-curvature="0"
             d="m 0,0 0,-10.006 c 0.923,-4.578 3.123,-8.605 6.6,-12.082 4.718,-4.719 10.414,-7.078 17.084,-7.078 6.671,0 12.365,2.359 17.086,7.078 4.718,4.719 7.078,10.414 7.078,17.084 0,6.671 -2.36,12.365 -7.078,17.085 C 36.049,16.8 30.355,19.16 23.684,19.16 17.014,19.16 11.318,16.8 6.6,12.081 3.123,8.604 0.923,4.576 0,0 m -4.789,19.532 4.789,0 0,-7.344 c 0.887,1.206 1.898,2.376 3.034,3.512 5.712,5.677 12.595,8.516 20.65,8.516 8.089,0 14.982,-2.848 20.677,-8.542 5.696,-5.695 8.543,-12.588 8.543,-20.678 0,-8.055 -2.847,-14.937 -8.543,-20.65 -5.695,-5.713 -12.588,-8.569 -20.677,-8.569 -8.055,0 -14.938,2.856 -20.65,8.569 -1.136,1.135 -2.147,2.306 -3.034,3.513 l 0,-30.55 -4.789,0 0,72.223 z"
             style="fill:#ff6900;fill-opacity:1;fill-rule:nonzero;stroke:none"
             id="path106" />
        </g>
        <g
           id="g108"
           transform="translate(1027.1318,1094.2119)">
          <path
             inkscape:connector-curvature="0"
             d="m 0,0 0,-10.006 c 0.923,-4.578 3.123,-8.605 6.6,-12.082 4.718,-4.719 10.414,-7.078 17.084,-7.078 6.671,0 12.365,2.359 17.086,7.078 4.718,4.719 7.078,10.414 7.078,17.084 0,6.671 -2.36,12.365 -7.078,17.085 C 36.049,16.8 30.355,19.16 23.684,19.16 17.014,19.16 11.318,16.8 6.6,12.081 3.123,8.604 0.923,4.576 0,0 z m -4.789,19.532 4.789,0 0,-7.344 c 0.887,1.206 1.898,2.376 3.034,3.512 5.712,5.677 12.595,8.516 20.65,8.516 8.089,0 14.982,-2.848 20.677,-8.542 5.696,-5.695 8.543,-12.588 8.543,-20.678 0,-8.055 -2.847,-14.937 -8.543,-20.65 -5.695,-5.713 -12.588,-8.569 -20.677,-8.569 -8.055,0 -14.938,2.856 -20.65,8.569 -1.136,1.135 -2.147,2.306 -3.034,3.513 l 0,-30.55 -4.789,0 0,72.223 z"
             style="fill:none;stroke:#ff6900;stroke-width:3.75;stroke-linecap:butt;stroke-linejoin:miter;stroke-miterlimit:4;stroke-opacity:1;stroke-dasharray:none"
             id="path110" />
        </g>
        <g
           id="g112"
           transform="translate(1093.3408,1113.7441)">
          <path
             inkscape:connector-curvature="0"
             d="m 0,0 4.791,0 0,-9.526 c 0.992,1.418 2.147,2.785 3.459,4.097 4.223,4.223 8.551,6.44 12.986,6.653 l 0,-5.215 C 18.221,-4.134 15.098,-5.819 11.869,-9.048 7.326,-13.554 4.967,-18.966 4.791,-25.28 l 0,-26.985 -4.791,0 L 0,0 z"
             style="fill:#ff6900;fill-opacity:1;fill-rule:nonzero;stroke:none"
             id="path114" />
        </g>
        <g
           id="g116"
           transform="translate(1093.3408,1113.7441)">
          <path
             inkscape:connector-curvature="0"
             d="m 0,0 4.791,0 0,-9.526 c 0.992,1.418 2.147,2.785 3.459,4.097 4.223,4.223 8.551,6.44 12.986,6.653 l 0,-5.215 C 18.221,-4.134 15.098,-5.819 11.869,-9.048 7.326,-13.554 4.967,-18.966 4.791,-25.28 l 0,-26.985 -4.791,0 L 0,0 z"
             style="fill:none;stroke:#ff6900;stroke-width:3.75;stroke-linecap:butt;stroke-linejoin:miter;stroke-miterlimit:4;stroke-opacity:1;stroke-dasharray:none"
             id="path118" />
        </g>
        <path
           inkscape:connector-curvature="0"
           d="m 875.437,1059.304 -8.667,0 0,57.375 8.667,0 0,-57.375 z"
           style="fill:#ffffff;fill-opacity:1;fill-rule:nonzero;stroke:none"
           id="path120" />
        <g
           id="g122"
           transform="translate(884.6035,1115.6787)">
          <path
             inkscape:connector-curvature="0"
             d="M 0,0 30.5,0"
             style="fill:none;stroke:#ffffff;stroke-width:8.5;stroke-linecap:butt;stroke-linejoin:miter;stroke-miterlimit:4;stroke-opacity:1;stroke-dasharray:none"
             id="path124" />
        </g>
        <g
           id="g126"
           transform="translate(896.4375,1144.4678)">
          <path
             inkscape:connector-curvature="0"
             d="m 0,0 0,-64.487 c 0,0 -0.033,-17.511 20.833,-17.511"
             style="fill:none;stroke:#ffffff;stroke-width:8.5;stroke-linecap:butt;stroke-linejoin:miter;stroke-miterlimit:4;stroke-opacity:1;stroke-dasharray:none"
             id="path128" />
        </g>
        <g
           id="g130"
           transform="translate(1143.4658,1110.5703)">
          <path
             inkscape:connector-curvature="0"
             d="m 0,0 c 2.118,0.672 4.373,1.036 6.713,1.036 2.374,0 4.659,-0.377 6.805,-1.067 L 9.263,9.827 C 8.417,9.896 7.564,9.941 6.701,9.941 5.873,9.941 5.056,9.899 4.244,9.835 L 0,0 z"
             style="fill:#ff6900;fill-opacity:1;fill-rule:nonzero;stroke:none"
             id="path132" />
        </g>
        <g
           id="g134"
           transform="translate(1158.9453,1119.2402)">
          <path
             inkscape:connector-curvature="0"
             d="m 0,0 5.56,-12.879 c 4.855,-4.101 7.943,-10.244 7.943,-17.114 0,-12.35 -9.971,-22.361 -22.27,-22.361 -12.3,0 -22.271,10.011 -22.271,22.361 0,6.93 3.141,13.124 8.071,17.224 l 5.526,12.802 c -12.938,-3.766 -22.4,-15.744 -22.4,-29.949 0,-17.226 13.907,-31.188 31.063,-31.188 17.155,0 31.062,13.962 31.062,31.188 C 22.284,-15.754 12.879,-3.804 0,0"
             style="fill:#ff6900;fill-opacity:1;fill-rule:nonzero;stroke:none"
             id="path136" />
        </g>
        <g
           id="g138"
           transform="translate(1150.2773,1127.5869)">
          <path
             inkscape:connector-curvature="0"
             d="M 0,0 -11.917,-27.813 0,-22.158 11.922,-27.813 0,0 z"
             style="fill:#ffffff;fill-opacity:1;fill-rule:nonzero;stroke:none"
             id="path140" />
        </g>
      </g>
    </g>
  </g>
</svg>
